<mxfile host="app.diagrams.net" modified="2024-04-15T03:14:28.104Z" agent="Mozilla/5.0 (Windows NT 10.0; Win64; x64) AppleWebKit/537.36 (KHTML, like Gecko) Chrome/123.0.0.0 Safari/537.36 Edg/123.0.0.0" etag="1NQKZOjUn4bsqc8fIbLU" version="24.2.5" type="device">
  <diagram id="C5RBs43oDa-KdzZeNtuy" name="Page-1">
    <mxGraphModel dx="2799" dy="875" grid="1" gridSize="10" guides="1" tooltips="1" connect="1" arrows="1" fold="1" page="1" pageScale="1" pageWidth="827" pageHeight="1169" math="0" shadow="0">
      <root>
        <mxCell id="WIyWlLk6GJQsqaUBKTNV-0" />
        <mxCell id="WIyWlLk6GJQsqaUBKTNV-1" parent="WIyWlLk6GJQsqaUBKTNV-0" />
        <mxCell id="zkfFHV4jXpPFQw0GAbJ--0" value="Game.java" style="swimlane;fontStyle=2;align=center;verticalAlign=top;childLayout=stackLayout;horizontal=1;startSize=26;horizontalStack=0;resizeParent=1;resizeLast=0;collapsible=1;marginBottom=0;rounded=0;shadow=0;strokeWidth=1;" parent="WIyWlLk6GJQsqaUBKTNV-1" vertex="1">
          <mxGeometry x="20" y="10" width="220" height="106" as="geometry">
            <mxRectangle x="230" y="140" width="160" height="26" as="alternateBounds" />
          </mxGeometry>
        </mxCell>
        <mxCell id="zkfFHV4jXpPFQw0GAbJ--5" value="Methods:&#xa;&#xa;+ main(String[] args)&#xa;&#xa;&#xa;&#xa;" style="text;align=left;verticalAlign=top;spacingLeft=4;spacingRight=4;overflow=hidden;rotatable=0;points=[[0,0.5],[1,0.5]];portConstraint=eastwest;" parent="zkfFHV4jXpPFQw0GAbJ--0" vertex="1">
          <mxGeometry y="26" width="220" height="80" as="geometry" />
        </mxCell>
        <mxCell id="C-_iMZTlnANnUGbADPzh-8" value="Healer.java" style="swimlane;fontStyle=2;align=center;verticalAlign=top;childLayout=stackLayout;horizontal=1;startSize=26;horizontalStack=0;resizeParent=1;resizeLast=0;collapsible=1;marginBottom=0;rounded=0;shadow=0;strokeWidth=1;" parent="WIyWlLk6GJQsqaUBKTNV-1" vertex="1">
          <mxGeometry x="990" y="690" width="270" height="110" as="geometry">
            <mxRectangle x="230" y="140" width="160" height="26" as="alternateBounds" />
          </mxGeometry>
        </mxCell>
        <mxCell id="C-_iMZTlnANnUGbADPzh-11" value="Methods:&#xa;&#xa;+ Healer(String name, int hp, int atk, int def)&#xa;&#xa;&#xa;" style="text;align=left;verticalAlign=top;spacingLeft=4;spacingRight=4;overflow=hidden;rotatable=0;points=[[0,0.5],[1,0.5]];portConstraint=eastwest;" parent="C-_iMZTlnANnUGbADPzh-8" vertex="1">
          <mxGeometry y="26" width="270" height="70" as="geometry" />
        </mxCell>
        <mxCell id="C-_iMZTlnANnUGbADPzh-12" value="Character.java&#xa;" style="swimlane;fontStyle=2;align=center;verticalAlign=top;childLayout=stackLayout;horizontal=1;startSize=26;horizontalStack=0;resizeParent=1;resizeLast=0;collapsible=1;marginBottom=0;rounded=0;shadow=0;strokeWidth=1;" parent="WIyWlLk6GJQsqaUBKTNV-1" vertex="1">
          <mxGeometry x="380" y="95" width="500" height="640" as="geometry">
            <mxRectangle x="230" y="140" width="160" height="26" as="alternateBounds" />
          </mxGeometry>
        </mxCell>
        <mxCell id="C-_iMZTlnANnUGbADPzh-13" value="Attributes: &#xa;&#xa;- String name&#xa;&#xa;- int atk&#xa;&#xa;- int hp&#xa;&#xa;- int def&#xa;&#xa;- CharacterType type&#xa;" style="text;align=left;verticalAlign=top;spacingLeft=4;spacingRight=4;overflow=hidden;rotatable=0;points=[[0,0.5],[1,0.5]];portConstraint=eastwest;rounded=0;shadow=0;html=0;" parent="C-_iMZTlnANnUGbADPzh-12" vertex="1">
          <mxGeometry y="26" width="500" height="174" as="geometry" />
        </mxCell>
        <mxCell id="C-_iMZTlnANnUGbADPzh-14" value="" style="line;html=1;strokeWidth=1;align=left;verticalAlign=middle;spacingTop=-1;spacingLeft=3;spacingRight=3;rotatable=0;labelPosition=right;points=[];portConstraint=eastwest;" parent="C-_iMZTlnANnUGbADPzh-12" vertex="1">
          <mxGeometry y="200" width="500" height="8" as="geometry" />
        </mxCell>
        <mxCell id="C-_iMZTlnANnUGbADPzh-15" value="Methods:&#xa;&#xa;+ Character(String name, int hp, int atk, int def, CharacterType type)&#xa;&#xa;+ setAtk(int newAtk) &#xa;&#xa;+ setHp(int newHp)&#xa;&#xa;+ setDef(int newDef)&#xa;&#xa;+ setType(CharacterType newType)&#xa;&#xa;+ getAtk() : int&#xa;&#xa;+ getHp() : int&#xa;&#xa;+ getDef() : int&#xa;&#xa;+ getName() : String&#xa;&#xa;+ getType(): CharacterType&#xa;&#xa;+ toString(): String&#xa;&#xa;+ CheckCharacter(int option, List&lt;Character&gt; characterList) : boolean&#xa;&#xa;+  compareTo(Character other): int&#xa;&#xa;+ createFileCharacter(String name, int hp, int atk, int def, CharacterType type) : Character&#xa;&#xa;&#xa;" style="text;align=left;verticalAlign=top;spacingLeft=4;spacingRight=4;overflow=hidden;rotatable=0;points=[[0,0.5],[1,0.5]];portConstraint=eastwest;" parent="C-_iMZTlnANnUGbADPzh-12" vertex="1">
          <mxGeometry y="208" width="500" height="432" as="geometry" />
        </mxCell>
        <mxCell id="C-_iMZTlnANnUGbADPzh-24" value="Battlefield.java" style="swimlane;fontStyle=2;align=center;verticalAlign=top;childLayout=stackLayout;horizontal=1;startSize=26;horizontalStack=0;resizeParent=1;resizeLast=0;collapsible=1;marginBottom=0;rounded=0;shadow=0;strokeWidth=1;" parent="WIyWlLk6GJQsqaUBKTNV-1" vertex="1">
          <mxGeometry x="-90" y="510" width="310" height="196" as="geometry">
            <mxRectangle x="230" y="140" width="160" height="26" as="alternateBounds" />
          </mxGeometry>
        </mxCell>
        <mxCell id="C-_iMZTlnANnUGbADPzh-27" value="Methods:        &#xa;&#xa;+ CalculateBossAtk() : Integer&#xa;&#xa;+ AskTopThreeAtk(ArrayList&lt;Character&gt; characterList)&#xa;&#xa;+ HPandDefLineup(ArrayList&lt;Character&gt; characterList):&#xa;    &#xa;+  CalculateDamage(Character partyMember): int        &#xa;&#xa;" style="text;align=left;verticalAlign=top;spacingLeft=4;spacingRight=4;overflow=hidden;rotatable=0;points=[[0,0.5],[1,0.5]];portConstraint=eastwest;" parent="C-_iMZTlnANnUGbADPzh-24" vertex="1">
          <mxGeometry y="26" width="310" height="170" as="geometry" />
        </mxCell>
        <mxCell id="qbDU9hnoMPu13N1oNHzN-0" value="FileLoader" style="swimlane;fontStyle=2;align=center;verticalAlign=top;childLayout=stackLayout;horizontal=1;startSize=26;horizontalStack=0;resizeParent=1;resizeLast=0;collapsible=1;marginBottom=0;rounded=0;shadow=0;strokeWidth=1;" parent="WIyWlLk6GJQsqaUBKTNV-1" vertex="1">
          <mxGeometry x="1320" y="400" width="580" height="196" as="geometry">
            <mxRectangle x="230" y="140" width="160" height="26" as="alternateBounds" />
          </mxGeometry>
        </mxCell>
        <mxCell id="qbDU9hnoMPu13N1oNHzN-3" value="Methods:&#xa;&#xa;+ load(File file, List&lt;Character&gt; characterList, Map&lt;String, List&lt;Character&gt;&gt; teams)&#xa;&#xa;- loadCharacters(BufferedReader br, List&lt;Character&gt; characterList)&#xa;&#xa;- loadTeams(BufferedReader br, Map&lt;String, List&lt;Character&gt;&gt; teams, List&lt;Character&gt; characterList)" style="text;align=left;verticalAlign=top;spacingLeft=4;spacingRight=4;overflow=hidden;rotatable=0;points=[[0,0.5],[1,0.5]];portConstraint=eastwest;" parent="qbDU9hnoMPu13N1oNHzN-0" vertex="1">
          <mxGeometry y="26" width="580" height="164" as="geometry" />
        </mxCell>
        <mxCell id="qbDU9hnoMPu13N1oNHzN-4" value="FileSaver" style="swimlane;fontStyle=2;align=center;verticalAlign=top;childLayout=stackLayout;horizontal=1;startSize=26;horizontalStack=0;resizeParent=1;resizeLast=0;collapsible=1;marginBottom=0;rounded=0;shadow=0;strokeWidth=1;" parent="WIyWlLk6GJQsqaUBKTNV-1" vertex="1">
          <mxGeometry x="1860" y="30" width="519" height="114" as="geometry">
            <mxRectangle x="230" y="140" width="160" height="26" as="alternateBounds" />
          </mxGeometry>
        </mxCell>
        <mxCell id="qbDU9hnoMPu13N1oNHzN-7" value="Methods:&#xa;&#xa;+  save(File file, List&lt;Character&gt; characterList, Map&lt;String, List&lt;Character&gt;&gt; teams): boolean" style="text;align=left;verticalAlign=top;spacingLeft=4;spacingRight=4;overflow=hidden;rotatable=0;points=[[0,0.5],[1,0.5]];portConstraint=eastwest;" parent="qbDU9hnoMPu13N1oNHzN-4" vertex="1">
          <mxGeometry y="26" width="519" height="88" as="geometry" />
        </mxCell>
        <mxCell id="qbDU9hnoMPu13N1oNHzN-8" value="Marksman.java" style="swimlane;fontStyle=2;align=center;verticalAlign=top;childLayout=stackLayout;horizontal=1;startSize=26;horizontalStack=0;resizeParent=1;resizeLast=0;collapsible=1;marginBottom=0;rounded=0;shadow=0;strokeWidth=1;" parent="WIyWlLk6GJQsqaUBKTNV-1" vertex="1">
          <mxGeometry x="1000" y="560" width="270" height="96" as="geometry">
            <mxRectangle x="230" y="140" width="160" height="26" as="alternateBounds" />
          </mxGeometry>
        </mxCell>
        <mxCell id="qbDU9hnoMPu13N1oNHzN-9" value="Methods:&#xa;&#xa;+ Marksman(String name, int hp, int atk, int def)&#xa;&#xa;&#xa;" style="text;align=left;verticalAlign=top;spacingLeft=4;spacingRight=4;overflow=hidden;rotatable=0;points=[[0,0.5],[1,0.5]];portConstraint=eastwest;" parent="qbDU9hnoMPu13N1oNHzN-8" vertex="1">
          <mxGeometry y="26" width="270" height="70" as="geometry" />
        </mxCell>
        <mxCell id="qbDU9hnoMPu13N1oNHzN-10" value="Swordsman.java" style="swimlane;fontStyle=2;align=center;verticalAlign=top;childLayout=stackLayout;horizontal=1;startSize=26;horizontalStack=0;resizeParent=1;resizeLast=0;collapsible=1;marginBottom=0;rounded=0;shadow=0;strokeWidth=1;" parent="WIyWlLk6GJQsqaUBKTNV-1" vertex="1">
          <mxGeometry x="980" y="260" width="270" height="110" as="geometry">
            <mxRectangle x="230" y="140" width="160" height="26" as="alternateBounds" />
          </mxGeometry>
        </mxCell>
        <mxCell id="qbDU9hnoMPu13N1oNHzN-11" value="Methods:&#xa;&#xa;+ Swordsman(String name, int hp, int atk, int def)&#xa;&#xa;&#xa;" style="text;align=left;verticalAlign=top;spacingLeft=4;spacingRight=4;overflow=hidden;rotatable=0;points=[[0,0.5],[1,0.5]];portConstraint=eastwest;" parent="qbDU9hnoMPu13N1oNHzN-10" vertex="1">
          <mxGeometry y="26" width="270" height="70" as="geometry" />
        </mxCell>
        <mxCell id="qbDU9hnoMPu13N1oNHzN-12" value="ShieldUser.java" style="swimlane;fontStyle=2;align=center;verticalAlign=top;childLayout=stackLayout;horizontal=1;startSize=26;horizontalStack=0;resizeParent=1;resizeLast=0;collapsible=1;marginBottom=0;rounded=0;shadow=0;strokeWidth=1;" parent="WIyWlLk6GJQsqaUBKTNV-1" vertex="1">
          <mxGeometry x="990" y="410" width="270" height="110" as="geometry">
            <mxRectangle x="230" y="140" width="160" height="26" as="alternateBounds" />
          </mxGeometry>
        </mxCell>
        <mxCell id="qbDU9hnoMPu13N1oNHzN-13" value="Methods:&#xa;&#xa;+ ShieldUser(String name, int hp, int atk, int def)&#xa;&#xa;&#xa;" style="text;align=left;verticalAlign=top;spacingLeft=4;spacingRight=4;overflow=hidden;rotatable=0;points=[[0,0.5],[1,0.5]];portConstraint=eastwest;" parent="qbDU9hnoMPu13N1oNHzN-12" vertex="1">
          <mxGeometry y="26" width="270" height="70" as="geometry" />
        </mxCell>
        <mxCell id="qbDU9hnoMPu13N1oNHzN-14" value="Menu.java&#xa;" style="swimlane;fontStyle=2;align=center;verticalAlign=top;childLayout=stackLayout;horizontal=1;startSize=26;horizontalStack=0;resizeParent=1;resizeLast=0;collapsible=1;marginBottom=0;rounded=0;shadow=0;strokeWidth=1;" parent="WIyWlLk6GJQsqaUBKTNV-1" vertex="1">
          <mxGeometry x="1360" y="10" width="420" height="310" as="geometry">
            <mxRectangle x="230" y="140" width="160" height="26" as="alternateBounds" />
          </mxGeometry>
        </mxCell>
        <mxCell id="qbDU9hnoMPu13N1oNHzN-15" value="Attributes: &#xa;&#xa;- Scanner scanner&#xa;&#xa;- ArrayList&lt;String&gt; options&#xa;&#xa;- String optMessage&#xa;" style="text;align=left;verticalAlign=top;spacingLeft=4;spacingRight=4;overflow=hidden;rotatable=0;points=[[0,0.5],[1,0.5]];portConstraint=eastwest;rounded=0;shadow=0;html=0;" parent="qbDU9hnoMPu13N1oNHzN-14" vertex="1">
          <mxGeometry y="26" width="420" height="124" as="geometry" />
        </mxCell>
        <mxCell id="qbDU9hnoMPu13N1oNHzN-16" value="" style="line;html=1;strokeWidth=1;align=left;verticalAlign=middle;spacingTop=-1;spacingLeft=3;spacingRight=3;rotatable=0;labelPosition=right;points=[];portConstraint=eastwest;" parent="qbDU9hnoMPu13N1oNHzN-14" vertex="1">
          <mxGeometry y="150" width="420" height="8" as="geometry" />
        </mxCell>
        <mxCell id="qbDU9hnoMPu13N1oNHzN-17" value="Methods:&#xa;&#xa;+ menuLoop()&#xa;&#xa;- save(List&lt;Character&gt; characterList, Map&lt;String, List&lt;Character&gt;&gt; teams)&#xa;&#xa;- load(List&lt;Character&gt; characterList, Map&lt;String, List&lt;Character&gt;&gt; teams)&#xa;" style="text;align=left;verticalAlign=top;spacingLeft=4;spacingRight=4;overflow=hidden;rotatable=0;points=[[0,0.5],[1,0.5]];portConstraint=eastwest;" parent="qbDU9hnoMPu13N1oNHzN-14" vertex="1">
          <mxGeometry y="158" width="420" height="152" as="geometry" />
        </mxCell>
        <mxCell id="AJ7v6v-4wFEmw7gHdWOU-1" value="" style="endArrow=open;endSize=12;dashed=1;html=1;rounded=0;exitX=0.477;exitY=1.028;exitDx=0;exitDy=0;exitPerimeter=0;entryX=0.5;entryY=0;entryDx=0;entryDy=0;" parent="WIyWlLk6GJQsqaUBKTNV-1" source="qbDU9hnoMPu13N1oNHzN-17" target="qbDU9hnoMPu13N1oNHzN-0" edge="1">
          <mxGeometry width="160" relative="1" as="geometry">
            <mxPoint x="1120" y="260" as="sourcePoint" />
            <mxPoint x="1280" y="260" as="targetPoint" />
          </mxGeometry>
        </mxCell>
        <mxCell id="AJ7v6v-4wFEmw7gHdWOU-2" value="" style="endArrow=open;endSize=12;dashed=1;html=1;rounded=0;entryX=0;entryY=0.5;entryDx=0;entryDy=0;exitX=1;exitY=0.5;exitDx=0;exitDy=0;" parent="WIyWlLk6GJQsqaUBKTNV-1" source="qbDU9hnoMPu13N1oNHzN-15" target="qbDU9hnoMPu13N1oNHzN-7" edge="1">
          <mxGeometry width="160" relative="1" as="geometry">
            <mxPoint x="1120" y="120" as="sourcePoint" />
            <mxPoint x="1280" y="120" as="targetPoint" />
          </mxGeometry>
        </mxCell>
        <mxCell id="AJ7v6v-4wFEmw7gHdWOU-3" value="" style="endArrow=block;endSize=16;endFill=0;html=1;rounded=0;exitX=0;exitY=0.5;exitDx=0;exitDy=0;entryX=1.004;entryY=0.965;entryDx=0;entryDy=0;entryPerimeter=0;" parent="WIyWlLk6GJQsqaUBKTNV-1" source="C-_iMZTlnANnUGbADPzh-11" target="C-_iMZTlnANnUGbADPzh-15" edge="1">
          <mxGeometry width="160" relative="1" as="geometry">
            <mxPoint x="500" y="710" as="sourcePoint" />
            <mxPoint x="660" y="710" as="targetPoint" />
          </mxGeometry>
        </mxCell>
        <mxCell id="AJ7v6v-4wFEmw7gHdWOU-4" value="" style="endArrow=block;endSize=16;endFill=0;html=1;rounded=0;exitX=0;exitY=0.5;exitDx=0;exitDy=0;entryX=1;entryY=0.758;entryDx=0;entryDy=0;entryPerimeter=0;" parent="WIyWlLk6GJQsqaUBKTNV-1" source="qbDU9hnoMPu13N1oNHzN-8" target="C-_iMZTlnANnUGbADPzh-15" edge="1">
          <mxGeometry width="160" relative="1" as="geometry">
            <mxPoint x="500" y="710" as="sourcePoint" />
            <mxPoint x="630" y="640" as="targetPoint" />
          </mxGeometry>
        </mxCell>
        <mxCell id="AJ7v6v-4wFEmw7gHdWOU-6" value="" style="endArrow=block;endSize=16;endFill=0;html=1;rounded=0;exitX=0;exitY=0.5;exitDx=0;exitDy=0;entryX=1.011;entryY=0.135;entryDx=0;entryDy=0;entryPerimeter=0;" parent="WIyWlLk6GJQsqaUBKTNV-1" source="qbDU9hnoMPu13N1oNHzN-11" target="C-_iMZTlnANnUGbADPzh-15" edge="1">
          <mxGeometry width="160" relative="1" as="geometry">
            <mxPoint x="500" y="710" as="sourcePoint" />
            <mxPoint x="660" y="710" as="targetPoint" />
          </mxGeometry>
        </mxCell>
        <mxCell id="AJ7v6v-4wFEmw7gHdWOU-7" value="CharacterType.java&#xa;" style="swimlane;fontStyle=2;align=center;verticalAlign=top;childLayout=stackLayout;horizontal=1;startSize=26;horizontalStack=0;resizeParent=1;resizeLast=0;collapsible=1;marginBottom=0;rounded=0;shadow=0;strokeWidth=1;" parent="WIyWlLk6GJQsqaUBKTNV-1" vertex="1">
          <mxGeometry x="1010" y="110" width="160" height="140" as="geometry">
            <mxRectangle x="230" y="140" width="160" height="26" as="alternateBounds" />
          </mxGeometry>
        </mxCell>
        <mxCell id="AJ7v6v-4wFEmw7gHdWOU-8" value="&lt;&lt; enumeration &gt;&gt;&#xa;&#xa;+ HEALER&#xa;+ MARKSMAN&#xa;+ SWORDSMAN&#xa;+ SHIELDUSER&#xa;&#xa; " style="text;align=left;verticalAlign=top;spacingLeft=4;spacingRight=4;overflow=hidden;rotatable=0;points=[[0,0.5],[1,0.5]];portConstraint=eastwest;rounded=0;shadow=0;html=0;" parent="AJ7v6v-4wFEmw7gHdWOU-7" vertex="1">
          <mxGeometry y="26" width="160" height="114" as="geometry" />
        </mxCell>
        <mxCell id="AJ7v6v-4wFEmw7gHdWOU-22" value="Team" style="swimlane;fontStyle=2;align=center;verticalAlign=top;childLayout=stackLayout;horizontal=1;startSize=26;horizontalStack=0;resizeParent=1;resizeLast=0;collapsible=1;marginBottom=0;rounded=0;shadow=0;strokeWidth=1;" parent="WIyWlLk6GJQsqaUBKTNV-1" vertex="1">
          <mxGeometry x="-100" y="160" width="413" height="310" as="geometry">
            <mxRectangle x="230" y="140" width="160" height="26" as="alternateBounds" />
          </mxGeometry>
        </mxCell>
        <mxCell id="AJ7v6v-4wFEmw7gHdWOU-23" value="Attributes:&#xa;&#xa; - String name&#xa;&#xa;- List&lt;Character&gt; members" style="text;align=left;verticalAlign=top;spacingLeft=4;spacingRight=4;overflow=hidden;rotatable=0;points=[[0,0.5],[1,0.5]];portConstraint=eastwest;rounded=0;shadow=0;html=0;" parent="AJ7v6v-4wFEmw7gHdWOU-22" vertex="1">
          <mxGeometry y="26" width="413" height="74" as="geometry" />
        </mxCell>
        <mxCell id="AJ7v6v-4wFEmw7gHdWOU-24" value="" style="line;html=1;strokeWidth=1;align=left;verticalAlign=middle;spacingTop=-1;spacingLeft=3;spacingRight=3;rotatable=0;labelPosition=right;points=[];portConstraint=eastwest;" parent="AJ7v6v-4wFEmw7gHdWOU-22" vertex="1">
          <mxGeometry y="100" width="413" height="20" as="geometry" />
        </mxCell>
        <mxCell id="AJ7v6v-4wFEmw7gHdWOU-25" value="Methods:&#xa;&#xa;+ Team(String name)&#xa;&#xa;+ addMember(Character character)&#xa;&#xa;+ getName(): String&#xa;&#xa;+ getMembers(): List&lt;Character&gt;&#xa;&#xa;+  createTeam(String teamName, List&lt;Character&gt; teamMembers): Team" style="text;align=left;verticalAlign=top;spacingLeft=4;spacingRight=4;overflow=hidden;rotatable=0;points=[[0,0.5],[1,0.5]];portConstraint=eastwest;" parent="AJ7v6v-4wFEmw7gHdWOU-22" vertex="1">
          <mxGeometry y="120" width="413" height="190" as="geometry" />
        </mxCell>
        <mxCell id="x1eWgWmqCYj6v43EixWF-4" value="HelloApplication" style="swimlane;fontStyle=2;align=center;verticalAlign=top;childLayout=stackLayout;horizontal=1;startSize=26;horizontalStack=0;resizeParent=1;resizeLast=0;collapsible=1;marginBottom=0;rounded=0;shadow=0;strokeWidth=1;" parent="WIyWlLk6GJQsqaUBKTNV-1" vertex="1">
          <mxGeometry x="1330" y="650" width="270" height="250" as="geometry">
            <mxRectangle x="230" y="140" width="160" height="26" as="alternateBounds" />
          </mxGeometry>
        </mxCell>
        <mxCell id="x1eWgWmqCYj6v43EixWF-5" value="Attributes:&#xa;&#xa;-stage: Stage" style="text;align=left;verticalAlign=top;spacingLeft=4;spacingRight=4;overflow=hidden;rotatable=0;points=[[0,0.5],[1,0.5]];portConstraint=eastwest;rounded=0;shadow=0;html=0;" parent="x1eWgWmqCYj6v43EixWF-4" vertex="1">
          <mxGeometry y="26" width="270" height="84" as="geometry" />
        </mxCell>
        <mxCell id="x1eWgWmqCYj6v43EixWF-6" value="" style="line;html=1;strokeWidth=1;align=left;verticalAlign=middle;spacingTop=-1;spacingLeft=3;spacingRight=3;rotatable=0;labelPosition=right;points=[];portConstraint=eastwest;" parent="x1eWgWmqCYj6v43EixWF-4" vertex="1">
          <mxGeometry y="110" width="270" height="8" as="geometry" />
        </mxCell>
        <mxCell id="x1eWgWmqCYj6v43EixWF-7" value="Method:&#xa;&#xa;+start (stage: Stage): void &#xa;&#xa;+main (args: String[]): void" style="text;align=left;verticalAlign=top;spacingLeft=4;spacingRight=4;overflow=hidden;rotatable=0;points=[[0,0.5],[1,0.5]];portConstraint=eastwest;fontSize=13;" parent="x1eWgWmqCYj6v43EixWF-4" vertex="1">
          <mxGeometry y="118" width="270" height="90" as="geometry" />
        </mxCell>
        <mxCell id="x1eWgWmqCYj6v43EixWF-9" value="HelloController" style="swimlane;fontStyle=2;align=center;verticalAlign=top;childLayout=stackLayout;horizontal=1;startSize=26;horizontalStack=0;resizeParent=1;resizeLast=0;collapsible=1;marginBottom=0;rounded=0;shadow=0;strokeWidth=1;" parent="WIyWlLk6GJQsqaUBKTNV-1" vertex="1">
          <mxGeometry x="1984.5" y="170" width="385.5" height="1100" as="geometry">
            <mxRectangle x="230" y="140" width="160" height="26" as="alternateBounds" />
          </mxGeometry>
        </mxCell>
        <mxCell id="x1eWgWmqCYj6v43EixWF-10" value="Attributes:&#xa;&#xa;- file: File &#xa;&#xa;- stage: Stage&#xa;&#xa;- characterList: List&lt;Character&#xa;&#xa;-team: Map&lt;String, List&lt;Character&gt;&gt;&#xa;&#xa;" style="text;align=left;verticalAlign=top;spacingLeft=4;spacingRight=4;overflow=hidden;rotatable=0;points=[[0,0.5],[1,0.5]];portConstraint=eastwest;rounded=0;shadow=0;html=0;" parent="x1eWgWmqCYj6v43EixWF-9" vertex="1">
          <mxGeometry y="26" width="385.5" height="144" as="geometry" />
        </mxCell>
        <mxCell id="x1eWgWmqCYj6v43EixWF-11" value="" style="line;html=1;strokeWidth=1;align=left;verticalAlign=middle;spacingTop=-1;spacingLeft=3;spacingRight=3;rotatable=0;labelPosition=right;points=[];portConstraint=eastwest;" parent="x1eWgWmqCYj6v43EixWF-9" vertex="1">
          <mxGeometry y="170" width="385.5" height="22" as="geometry" />
        </mxCell>
        <mxCell id="x1eWgWmqCYj6v43EixWF-12" value="Method:&#xa;&#xa;+initialize(): void               &#xa;&#xa;&#xa;+shellLoad(testFile: File): void  &#xa;&#xa;&#xa;+handleLoad(): void                &#xa;&#xa;&#xa;+handleSaveFile(): void            &#xa;&#xa;&#xa;+handleSaveAsFile(): void          &#xa;&#xa;&#xa;+handleQuit(): void                &#xa;&#xa;&#xa;+about(): void                     &#xa;&#xa;&#xa;+createCharacter(): void           &#xa;&#xa;&#xa;+getCharacter(name: String, hp: int, atk: int):&#xa;Character    &#xa;&#xa;&#xa;+createTeamGUI(): void             &#xa;&#xa;&#xa;+editCharacterGUI(): void          &#xa;&#xa;&#xa;+topThree(): void                  &#xa;&#xa;&#xa;+lineup(): void                    &#xa;&#xa;&#xa;+boss(): void                      &#xa;&#xa;&#xa;+damage(): void                    &#xa;&#xa;&#xa;+displayMembers(): void            &#xa;&#xa;&#xa;+displayTeams(): void              &#xa;&#xa;&#xa;+isValidInteger(input: String): boolean" style="text;align=left;verticalAlign=top;spacingLeft=4;spacingRight=4;overflow=hidden;rotatable=0;points=[[0,0.5],[1,0.5]];portConstraint=eastwest;fontSize=13;" parent="x1eWgWmqCYj6v43EixWF-9" vertex="1">
          <mxGeometry y="192" width="385.5" height="908" as="geometry" />
        </mxCell>
        <mxCell id="x1eWgWmqCYj6v43EixWF-14" value="" style="endArrow=open;endSize=12;dashed=1;html=1;rounded=0;exitX=0;exitY=0.158;exitDx=0;exitDy=0;exitPerimeter=0;entryX=1;entryY=0.5;entryDx=0;entryDy=0;" parent="WIyWlLk6GJQsqaUBKTNV-1" source="x1eWgWmqCYj6v43EixWF-12" target="qbDU9hnoMPu13N1oNHzN-3" edge="1">
          <mxGeometry width="160" relative="1" as="geometry">
            <mxPoint x="1570" y="334" as="sourcePoint" />
            <mxPoint x="1620" y="410" as="targetPoint" />
          </mxGeometry>
        </mxCell>
        <mxCell id="x1eWgWmqCYj6v43EixWF-15" value="" style="endArrow=open;endSize=12;dashed=1;html=1;rounded=0;exitX=0.25;exitY=0;exitDx=0;exitDy=0;entryX=0.284;entryY=1.048;entryDx=0;entryDy=0;entryPerimeter=0;" parent="WIyWlLk6GJQsqaUBKTNV-1" source="x1eWgWmqCYj6v43EixWF-9" target="qbDU9hnoMPu13N1oNHzN-7" edge="1">
          <mxGeometry width="160" relative="1" as="geometry">
            <mxPoint x="1580" y="344" as="sourcePoint" />
            <mxPoint x="1630" y="420" as="targetPoint" />
          </mxGeometry>
        </mxCell>
        <mxCell id="xbR5W7c9wwVilmZqhXMw-1" value="" style="endArrow=open;endSize=12;dashed=1;html=1;rounded=0;exitX=1.007;exitY=0.328;exitDx=0;exitDy=0;exitPerimeter=0;entryX=0;entryY=0.5;entryDx=0;entryDy=0;" parent="WIyWlLk6GJQsqaUBKTNV-1" source="C-_iMZTlnANnUGbADPzh-13" target="AJ7v6v-4wFEmw7gHdWOU-8" edge="1">
          <mxGeometry width="160" relative="1" as="geometry">
            <mxPoint x="860" y="240" as="sourcePoint" />
            <mxPoint x="1020" y="240" as="targetPoint" />
          </mxGeometry>
        </mxCell>
        <mxCell id="xbR5W7c9wwVilmZqhXMw-3" value="" style="endArrow=block;endSize=16;endFill=0;html=1;rounded=0;exitX=0.004;exitY=0.697;exitDx=0;exitDy=0;entryX=1;entryY=0.416;entryDx=0;entryDy=0;entryPerimeter=0;exitPerimeter=0;" parent="WIyWlLk6GJQsqaUBKTNV-1" source="qbDU9hnoMPu13N1oNHzN-13" target="C-_iMZTlnANnUGbADPzh-15" edge="1">
          <mxGeometry width="160" relative="1" as="geometry">
            <mxPoint x="990" y="281" as="sourcePoint" />
            <mxPoint x="896" y="371" as="targetPoint" />
          </mxGeometry>
        </mxCell>
        <mxCell id="VfISPpZtgVDVe0Ft1Rp6-0" value="" style="endArrow=diamondThin;endFill=1;endSize=24;html=1;rounded=0;exitX=1;exitY=0.5;exitDx=0;exitDy=0;" edge="1" parent="WIyWlLk6GJQsqaUBKTNV-1" source="AJ7v6v-4wFEmw7gHdWOU-25" target="C-_iMZTlnANnUGbADPzh-15">
          <mxGeometry width="160" relative="1" as="geometry">
            <mxPoint x="640" y="310" as="sourcePoint" />
            <mxPoint x="800" y="310" as="targetPoint" />
          </mxGeometry>
        </mxCell>
        <mxCell id="VfISPpZtgVDVe0Ft1Rp6-1" value="" style="endArrow=open;endSize=12;dashed=1;html=1;rounded=0;exitX=1.01;exitY=-0.13;exitDx=0;exitDy=0;exitPerimeter=0;entryX=-0.001;entryY=0.066;entryDx=0;entryDy=0;entryPerimeter=0;" edge="1" parent="WIyWlLk6GJQsqaUBKTNV-1" source="zkfFHV4jXpPFQw0GAbJ--5" target="qbDU9hnoMPu13N1oNHzN-14">
          <mxGeometry width="160" relative="1" as="geometry">
            <mxPoint x="894" y="188" as="sourcePoint" />
            <mxPoint x="1020" y="153" as="targetPoint" />
          </mxGeometry>
        </mxCell>
        <mxCell id="VfISPpZtgVDVe0Ft1Rp6-4" value="" style="endArrow=open;endSize=12;dashed=1;html=1;rounded=0;exitX=0.5;exitY=0;exitDx=0;exitDy=0;entryX=0;entryY=0.5;entryDx=0;entryDy=0;" edge="1" parent="WIyWlLk6GJQsqaUBKTNV-1" source="C-_iMZTlnANnUGbADPzh-12" target="qbDU9hnoMPu13N1oNHzN-15">
          <mxGeometry width="160" relative="1" as="geometry">
            <mxPoint x="894" y="188" as="sourcePoint" />
            <mxPoint x="1020" y="203" as="targetPoint" />
            <Array as="points">
              <mxPoint x="990" y="60" />
            </Array>
          </mxGeometry>
        </mxCell>
        <mxCell id="VfISPpZtgVDVe0Ft1Rp6-5" value="" style="endArrow=open;endSize=12;dashed=1;html=1;rounded=0;exitX=1;exitY=0.5;exitDx=0;exitDy=0;" edge="1" parent="WIyWlLk6GJQsqaUBKTNV-1" source="x1eWgWmqCYj6v43EixWF-5" target="x1eWgWmqCYj6v43EixWF-12">
          <mxGeometry width="160" relative="1" as="geometry">
            <mxPoint x="904" y="198" as="sourcePoint" />
            <mxPoint x="1030" y="213" as="targetPoint" />
          </mxGeometry>
        </mxCell>
        <mxCell id="VfISPpZtgVDVe0Ft1Rp6-6" value="" style="endArrow=open;endSize=12;dashed=1;html=1;rounded=0;exitX=1;exitY=0.5;exitDx=0;exitDy=0;entryX=0.012;entryY=0.743;entryDx=0;entryDy=0;entryPerimeter=0;" edge="1" parent="WIyWlLk6GJQsqaUBKTNV-1" source="C-_iMZTlnANnUGbADPzh-27" target="C-_iMZTlnANnUGbADPzh-15">
          <mxGeometry width="160" relative="1" as="geometry">
            <mxPoint x="914" y="208" as="sourcePoint" />
            <mxPoint x="1040" y="223" as="targetPoint" />
          </mxGeometry>
        </mxCell>
      </root>
    </mxGraphModel>
  </diagram>
</mxfile>
